<?xml version="1.0" standalone="no"?>
<!DOCTYPE svg PUBLIC "-//W3C//DTD SVG 20010904//EN"
 "http://www.w3.org/TR/2001/REC-SVG-20010904/DTD/svg10.dtd">
<svg version="1.0" xmlns="http://www.w3.org/2000/svg"
 width="512.000000pt" height="512.000000pt" viewBox="0 0 512.000000 512.000000"
 preserveAspectRatio="xMidYMid meet">
<metadata>
Created by potrace 1.11, written by Peter Selinger 2001-2013
</metadata>
<g transform="translate(0.000000,512.000000) scale(0.100000,-0.100000)"
fill="#000000" stroke="none">
<path d="M1653 4549 c-80 -10 -106 -14 -168 -29 -27 -6 -59 -13 -70 -14 -11
-2 -33 -8 -48 -15 -16 -6 -31 -11 -35 -11 -4 0 -43 -14 -87 -30 -201 -77 -371
-186 -520 -335 -95 -95 -201 -235 -239 -318 -9 -20 -21 -35 -26 -32 -6 3 -7
-1 -4 -9 3 -8 -1 -27 -9 -43 -22 -41 -66 -198 -75 -263 -4 -30 -7 -118 -6
-195 1 -118 5 -156 27 -238 51 -188 141 -359 259 -491 l57 -63 -54 -89 c-30
-49 -60 -100 -68 -114 -7 -14 -60 -103 -117 -198 -56 -95 -100 -175 -98 -178
3 -2 26 0 50 5 25 6 60 13 79 15 19 3 45 7 59 10 14 3 48 10 75 16 28 5 59 11
70 14 11 2 42 7 69 10 27 4 52 9 55 11 5 2 177 35 321 61 14 3 72 13 130 24
97 18 110 18 165 4 111 -27 199 -40 343 -48 l52 -3 1 41 c0 48 5 89 20 171 21
115 24 110 -56 112 -98 3 -214 21 -321 48 -86 21 -95 22 -165 8 -41 -7 -85
-16 -99 -18 -14 -2 -50 -9 -80 -15 -30 -6 -70 -13 -89 -16 -19 -2 -38 -7 -43
-10 -10 -7 21 53 64 123 14 21 28 43 31 50 5 7 -37 57 -105 128 -134 139 -178
195 -229 297 -131 261 -111 572 52 815 47 70 150 184 160 177 5 -3 9 0 9 6 0
7 10 20 23 31 39 34 180 126 233 152 74 37 239 92 319 107 39 6 90 16 115 20
47 9 337 6 380 -4 14 -3 39 -8 55 -11 184 -35 417 -136 532 -232 91 -76 112
-96 107 -104 -3 -5 -1 -8 4 -7 25 7 178 -203 167 -229 -2 -8 -1 -12 4 -9 19
12 71 -153 85 -268 3 -21 7 -40 9 -42 2 -3 24 0 48 5 56 12 161 25 250 30 13
1 16 9 12 39 -8 68 -11 87 -27 155 -9 38 -13 74 -10 79 4 6 2 8 -4 4 -6 -3
-13 4 -17 16 -19 70 -100 221 -163 308 -119 163 -326 335 -511 425 -135 66
-206 92 -361 130 -55 13 -75 17 -200 34 -78 10 -301 10 -387 0z"/>
<path d="M3249 3196 c-2 -2 -33 -7 -69 -11 -86 -9 -267 -56 -364 -94 -109 -44
-168 -75 -266 -139 -294 -195 -485 -474 -538 -787 -9 -53 -8 -280 1 -327 47
-249 143 -431 322 -613 178 -182 421 -316 685 -379 145 -34 173 -38 350 -41
157 -3 273 8 405 39 54 13 80 15 115 7 25 -5 99 -20 165 -32 66 -11 129 -23
140 -25 78 -16 296 -56 325 -60 19 -3 42 -8 50 -11 8 -3 29 -7 45 -9 17 -2 64
-10 105 -18 41 -8 76 -14 76 -13 1 1 -71 124 -160 273 l-163 271 44 49 c109
122 210 309 248 459 5 17 9 35 11 40 25 99 28 283 7 404 -26 153 -95 315 -190
448 -88 125 -250 273 -380 349 -17 11 -52 31 -77 46 -42 24 -239 106 -275 113
-9 2 -54 12 -101 24 -47 11 -105 23 -130 26 -49 7 -375 16 -381 11z m-468
-1040 c86 -41 133 -116 134 -216 0 -73 -18 -119 -66 -168 -58 -59 -169 -88
-234 -61 -16 6 -36 13 -43 15 -19 4 -80 58 -81 72 -1 6 -5 12 -9 12 -28 0 -49
147 -29 205 12 33 51 91 82 117 53 46 175 58 246 24z m721 0 c47 -22 91 -67
115 -115 23 -48 23 -154 0 -202 -89 -181 -346 -182 -433 -1 -77 161 49 349
226 339 30 -2 72 -11 92 -21z m706 6 c232 -95 181 -436 -69 -460 -90 -8 -189
46 -231 128 -32 62 -31 168 1 224 60 104 191 151 299 108z"/>
</g>
</svg>
